{"title":"Cake.2014.dvdscr.xvid.ac3.hq-PYRORECORDINGS","uid":11675479,"size":1554008634,"categoryP":"video","categoryS":"movies","magnet":"?xt=urn:btih:768d6f8378cff9293b05383a16cd17e883a3020d&amp;dn=Cake.2014.dvdscr.xvid.ac3.hq-PYRORECORDINGS&amp;tr=udp%3A%2F%2Ftracker.openbittorrent.com%3A80&amp;tr=udp%3A%2F%2Fopen.demonii.com%3A1337&amp;tr=udp%3A%2F%2Ftracker.coppersurfer.tk%3A6969&amp;tr=udp%3A%2F%2Fexodus.desync.com%3A6969","seeders":432,"leechers":84,"uploader":"Pyro4vida","files":3,"time":1422838626,"description":"ORIGINALLY UPLOADED BY - LOKI-Torrents\n\n\nClaire becomes fascinated by the suicide of a woman in her chronic pain support group while grappling with her own, very raw personal tragedy.\n\nCake.2014.DVDScr.XVID.AC3.HQ.Hive.avi\nFormat                                   : AVI\nFormat/Info                              : Audio Video Interleave\nFile size                                : 1.43 GiB\nDuration                                 : 1h 43mn\nOverall bit rate                         : 1 990 Kbps\nWriting application                      : Nandub v1.0rc2\nWriting library                          : Nandub build 1853/release\n\nVideo\nID                                       : 0\nFormat                                   : MPEG-4 Visual\nFormat profile                           : Advanced Simple@L5\nFormat settings, BVOP                    : 2\nFormat settings, QPel                    : Yes\nFormat settings, GMC                     : No warppoints\nFormat settings, Matrix                  : Default (H.263)\nMuxing mode                              : Packed bitstream\nCodec ID                                 : XVID\nCodec ID/Hint                            : XviD\nDuration                                 : 1h 43mn\nBit rate                                 : 1 596 Kbps\nWidth                                    : 720 pixels\nHeight                                   : 278 pixels\nDisplay aspect ratio                     : 2.590\nFrame rate                               : 23.976 fps\nColor space                              : YUV\nChroma subsampling                       : 4:2:0\nBit depth                                : 8 bits\nScan type                                : Progressive\nCompression mode                         : Lossy\nBits/(Pixel*Frame)                       : 0.333\nStream size                              : 1.15 GiB (80%)\nWriting library                          : XviD 1.2.1 (UTC 2008-12-04)\n\nAudio\nID                                       : 1\nFormat                                   : AC-3\nFormat/Info                              : Audio Coding 3\nMode extension                           : CM (complete main)\nCodec ID                                 : 2000\nDuration                                 : 1h 43mn\nBit rate mode                            : Constant\nBit rate                                 : 384 Kbps\nChannel(s)                               : 2 channels\nChannel positions                        : Front: L R\nSampling rate                            : 48.0 KHz\nBit depth                                : 16 bits\nCompression mode                         : Lossy\nStream size                              : 283 MiB (19%)\nAlignment                                : Split accross interleaves\nInterleave, duration                     : 42 ms (1.00 video frame)\nInterleave, preload duration             : 500 ms","torrent":{"xt":"urn:btih:768d6f8378cff9293b05383a16cd17e883a3020d","amp;dn":"Cake.2014.dvdscr.xvid.ac3.hq-PYRORECORDINGS","amp;tr":["udp%3A%2F%2Ftracker.openbittorrent.com%3A80","udp%3A%2F%2Fopen.demonii.com%3A1337","udp%3A%2F%2Ftracker.coppersurfer.tk%3A6969","udp%3A%2F%2Fexodus.desync.com%3A6969"],"infoHash":"768d6f8378cff9293b05383a16cd17e883a3020d","infoHashBuffer":{"type":"Buffer","data":[118,141,111,131,120,207,249,41,59,5,56,58,22,205,23,232,131,163,2,13]},"announce":[],"urlList":[]}}